<?xml version="1.0" encoding="UTF-8"?>

<!DOCTYPE svg PUBLIC '-//W3C//DTD SVG 1.0//EN' 'http://www.w3.org/TR/2001/REC-SVG-20010904/DTD/svg10.dtd'>
<svg style="fill-opacity:1; color-rendering:auto; color-interpolation:auto; stroke:black; text-rendering:auto; stroke-linecap:square; stroke-miterlimit:10; stroke-opacity:1; shape-rendering:auto; fill:black; stroke-dasharray:none; font-weight:normal; stroke-width:1; font-family:&apos;Dialog&apos;; font-style:normal; stroke-linejoin:miter; font-size:12; stroke-dashoffset:0; image-rendering:auto;" xmlns="http://www.w3.org/2000/svg" width="716" xmlns:xlink="http://www.w3.org/1999/xlink" height="616">
  <!--Generated by the Batik Graphics2D SVG Generator-->
  <defs id="genericDefs" />
  <g>
    <defs id="defs1">
      <clipPath clipPathUnits="userSpaceOnUse" id="clipPath1">
        <path d="M-3 -3 L247 -3 L247 127 L-3 127 L-3 -3 Z" />
      </clipPath>
      <clipPath clipPathUnits="userSpaceOnUse" id="clipPath2">
        <path d="M0 0 L0 112 L240 112 L240 0 Z" />
      </clipPath>
      <clipPath clipPathUnits="userSpaceOnUse" id="clipPath3">
        <path d="M0 0 L240 0 L240 15 L0 15 L0 0 Z" />
      </clipPath>
      <clipPath clipPathUnits="userSpaceOnUse" id="clipPath4">
        <path d="M-3 -3 L247 -3 L247 157 L-3 157 L-3 -3 Z" />
      </clipPath>
      <clipPath clipPathUnits="userSpaceOnUse" id="clipPath5">
        <path d="M0 0 L0 127 L240 127 L240 0 Z" />
      </clipPath>
      <clipPath clipPathUnits="userSpaceOnUse" id="clipPath6">
        <path d="M0 0 L240 0 L240 30 L0 30 L0 0 Z" />
      </clipPath>
      <clipPath clipPathUnits="userSpaceOnUse" id="clipPath7">
        <path d="M-3 -3 L297 -3 L297 167 L-3 167 L-3 -3 Z" />
      </clipPath>
      <clipPath clipPathUnits="userSpaceOnUse" id="clipPath8">
        <path d="M0 0 L0 137 L290 137 L290 0 Z" />
      </clipPath>
      <clipPath clipPathUnits="userSpaceOnUse" id="clipPath9">
        <path d="M0 0 L290 0 L290 30 L0 30 L0 0 Z" />
      </clipPath>
      <clipPath clipPathUnits="userSpaceOnUse" id="clipPath10">
        <path d="M0 0 L0 142 L240 142 L240 0 Z" />
      </clipPath>
      <clipPath clipPathUnits="userSpaceOnUse" id="clipPath11">
        <path d="M-3 -3 L247 -3 L247 87 L-3 87 L-3 -3 Z" />
      </clipPath>
      <clipPath clipPathUnits="userSpaceOnUse" id="clipPath12">
        <path d="M0 0 L0 72 L240 72 L240 0 Z" />
      </clipPath>
      <clipPath clipPathUnits="userSpaceOnUse" id="clipPath13">
        <path d="M-3 -3 L717 -3 L717 47 L-3 47 L-3 -3 Z" />
      </clipPath>
      <clipPath clipPathUnits="userSpaceOnUse" id="clipPath14">
        <path d="M0 0 L0 40 L710 40 L710 0 Z" />
      </clipPath>
      <clipPath clipPathUnits="userSpaceOnUse" id="clipPath15">
        <path d="M-3 -3 L47 -3 L47 27 L-3 27 L-3 -3 Z" />
      </clipPath>
      <clipPath clipPathUnits="userSpaceOnUse" id="clipPath16">
        <path d="M-3 -3 L77 -3 L77 27 L-3 27 L-3 -3 Z" />
      </clipPath>
      <clipPath clipPathUnits="userSpaceOnUse" id="clipPath17">
        <path d="M-3 -3 L57 -3 L57 27 L-3 27 L-3 -3 Z" />
      </clipPath>
      <clipPath clipPathUnits="userSpaceOnUse" id="clipPath18">
        <path d="M-3 -3 L97 -3 L97 27 L-3 27 L-3 -3 Z" />
      </clipPath>
      <clipPath clipPathUnits="userSpaceOnUse" id="clipPath19">
        <path d="M0 0 L104 0 L104 163 L0 163 L0 0 Z" />
      </clipPath>
      <clipPath clipPathUnits="userSpaceOnUse" id="clipPath20">
        <path d="M0 0 L184 0 L184 284 L0 284 L0 0 Z" />
      </clipPath>
      <clipPath clipPathUnits="userSpaceOnUse" id="clipPath21">
        <path d="M0 0 L314 0 L314 104 L0 104 L0 0 Z" />
      </clipPath>
      <clipPath clipPathUnits="userSpaceOnUse" id="clipPath22">
        <path d="M0 0 L283 0 L283 104 L0 104 L0 0 Z" />
      </clipPath>
      <clipPath clipPathUnits="userSpaceOnUse" id="clipPath23">
        <path d="M0 0 L90 0 L90 20 L0 20 L0 0 Z" />
      </clipPath>
      <clipPath clipPathUnits="userSpaceOnUse" id="clipPath24">
        <path d="M0 0 L40 0 L40 20 L0 20 L0 0 Z" />
      </clipPath>
      <clipPath clipPathUnits="userSpaceOnUse" id="clipPath25">
        <path d="M0 0 L50 0 L50 20 L0 20 L0 0 Z" />
      </clipPath>
      <clipPath clipPathUnits="userSpaceOnUse" id="clipPath26">
        <path d="M0 0 L70 0 L70 20 L0 20 L0 0 Z" />
      </clipPath>
      <clipPath clipPathUnits="userSpaceOnUse" id="clipPath27">
        <path d="M0 0 L85 0 L85 15 L0 15 L0 0 Z" />
      </clipPath>
      <clipPath clipPathUnits="userSpaceOnUse" id="clipPath28">
        <path d="M0 0 L116 0 L116 15 L0 15 L0 0 Z" />
      </clipPath>
    </defs>
    <g style="fill:white; text-rendering:geometricPrecision; stroke:white;">
      <rect x="0" y="0" width="716" style="stroke:none;" height="616" />
    </g>
    <g transform="translate(22,492)" style="font-size:11; fill:rgb(122,207,245); text-rendering:geometricPrecision; font-family:sans-serif; stroke:rgb(122,207,245); font-weight:bold;">
      <rect x="0" y="0" width="240" style="clip-path:url(#clipPath1); stroke:none;" height="120" />
    </g>
    <g transform="translate(22,492)" style="font-size:11; stroke-linecap:butt; text-rendering:geometricPrecision; font-family:sans-serif; stroke-linejoin:round; font-weight:bold; stroke-miterlimit:0;">
      <rect x="0" y="0" width="240" style="clip-path:url(#clipPath1); fill:none;" height="120" />
      <line x1="0" x2="240" y1="15" style="clip-path:url(#clipPath1); fill:none;" y2="15" />
    </g>
    <g style="text-rendering:geometricPrecision; font-size:11; font-family:sans-serif;" transform="translate(22,507)">
      <text x="2" y="14" style="clip-path:url(#clipPath2); stroke:none;" xml:space="preserve">+name : String</text>
      <text x="2" y="29" style="clip-path:url(#clipPath2); stroke:none;" xml:space="preserve">+author : String</text>
      <text x="2" y="44" style="clip-path:url(#clipPath2); stroke:none;" xml:space="preserve">+creation : Date</text>
      <line x1="0" x2="240" y1="49" style="stroke-linecap:butt; clip-path:url(#clipPath2); fill:none; stroke-linejoin:bevel; stroke-miterlimit:0;" y2="49" />
      <text x="2" y="63" style="clip-path:url(#clipPath2); stroke:none;" xml:space="preserve">+getModelState() : byte []</text>
      <text x="2" y="78" style="clip-path:url(#clipPath2); stroke:none;" xml:space="preserve">+setModelState(state : byte [])</text>
    </g>
    <g transform="translate(22,492)" style="text-rendering:geometricPrecision; font-size:11; font-weight:bold; font-family:sans-serif;">
      <text x="104" y="12" style="clip-path:url(#clipPath3); stroke:none;" xml:space="preserve">Model</text>
    </g>
    <g transform="translate(22,62)" style="font-size:11; fill:rgb(122,207,245); text-rendering:geometricPrecision; font-family:sans-serif; stroke:rgb(122,207,245); font-weight:bold;">
      <rect x="0" y="0" width="240" style="clip-path:url(#clipPath4); stroke:none;" height="150" />
    </g>
    <g transform="translate(22,62)" style="font-size:11; stroke-linecap:butt; text-rendering:geometricPrecision; font-family:sans-serif; stroke-linejoin:round; font-weight:bold; stroke-miterlimit:0;">
      <rect x="0" y="0" width="240" style="clip-path:url(#clipPath4); fill:none;" height="150" />
      <line x1="0" x2="240" y1="30" style="clip-path:url(#clipPath4); fill:none;" y2="30" />
    </g>
    <g transform="translate(22,92)" style="font-size:11; stroke-linecap:butt; text-rendering:geometricPrecision; font-family:sans-serif; stroke-linejoin:round; stroke-miterlimit:0;">
      <text x="2" y="14" style="clip-path:url(#clipPath5); stroke:none;" xml:space="preserve">+init()</text>
      <text x="2" y="29" style="clip-path:url(#clipPath5); stroke:none;" xml:space="preserve">+run()</text>
      <text x="2" y="44" style="clip-path:url(#clipPath5); stroke:none;" xml:space="preserve">+cleanup()</text>
      <text x="2" y="59" style="clip-path:url(#clipPath5); stroke:none;" xml:space="preserve">+getName() : String</text>
      <text x="2" y="74" style="clip-path:url(#clipPath5); stroke:none;" xml:space="preserve">+setName(name : String)</text>
    </g>
    <g transform="translate(22,62)" style="font-size:11; stroke-linecap:butt; text-rendering:geometricPrecision; font-family:sans-serif; stroke-linejoin:round; font-weight:bold; stroke-miterlimit:0;">
      <text x="84" y="12" style="clip-path:url(#clipPath6); stroke:none;" xml:space="preserve">&lt;&lt;Interface&gt;&gt;</text>
      <text x="88" y="27" style="clip-path:url(#clipPath6); stroke:none;" xml:space="preserve">Component</text>
    </g>
    <g transform="translate(2,272)" style="font-size:11; fill:rgb(122,207,245); text-rendering:geometricPrecision; font-family:sans-serif; stroke:rgb(122,207,245); font-weight:bold;">
      <rect x="0" y="0" width="290" style="clip-path:url(#clipPath7); stroke:none;" height="160" />
    </g>
    <g transform="translate(2,272)" style="font-size:11; stroke-linecap:butt; text-rendering:geometricPrecision; font-family:sans-serif; stroke-linejoin:round; font-weight:bold; stroke-miterlimit:0;">
      <rect x="0" y="0" width="290" style="clip-path:url(#clipPath7); fill:none;" height="160" />
      <line x1="0" x2="290" y1="30" style="clip-path:url(#clipPath7); fill:none;" y2="30" />
    </g>
    <g transform="translate(2,302)" style="font-size:11; stroke-linecap:butt; text-rendering:geometricPrecision; font-family:sans-serif; stroke-linejoin:round; stroke-miterlimit:0;">
      <text x="2" y="14" style="clip-path:url(#clipPath8); stroke:none;" xml:space="preserve">+setEntities(entities : List&lt;Entity&gt;)</text>
      <text x="2" y="29" style="clip-path:url(#clipPath8); stroke:none;" xml:space="preserve">+addComponent(child : Component)</text>
      <text x="2" y="44" style="clip-path:url(#clipPath8); stroke:none;" xml:space="preserve">+removeComponent(child : Component)</text>
      <text x="2" y="59" style="clip-path:url(#clipPath8); stroke:none;" xml:space="preserve">+addAttribute(name : String, clazz : Class, value : String)</text>
      <text x="2" y="74" style="clip-path:url(#clipPath8); stroke:none;" xml:space="preserve">+removeAttribut(name : String)</text>
      <text x="2" y="89" style="clip-path:url(#clipPath8); stroke:none;" xml:space="preserve">+getComponentIterator() : Iterator&lt;Component&gt;</text>
      <text x="2" y="104" style="clip-path:url(#clipPath8); stroke:none;" xml:space="preserve">+getEntityIterator() : Iterator&lt;Entity&gt;</text>
    </g>
    <g transform="translate(2,272)" style="font-size:11; stroke-linecap:butt; text-rendering:geometricPrecision; font-family:sans-serif; stroke-linejoin:round; font-weight:bold; stroke-miterlimit:0;">
      <text x="109" y="12" style="clip-path:url(#clipPath9); stroke:none;" xml:space="preserve">&lt;&lt;Interface&gt;&gt;</text>
      <text x="124" y="27" style="clip-path:url(#clipPath9); stroke:none;" xml:space="preserve">Context</text>
    </g>
    <g transform="translate(472,462)" style="font-size:11; fill:rgb(122,207,245); text-rendering:geometricPrecision; font-family:sans-serif; stroke:rgb(122,207,245); font-weight:bold;">
      <rect x="0" y="0" width="240" style="clip-path:url(#clipPath4); stroke:none;" height="150" />
    </g>
    <g transform="translate(472,462)" style="font-size:11; stroke-linecap:butt; text-rendering:geometricPrecision; font-family:sans-serif; stroke-linejoin:round; font-weight:bold; stroke-miterlimit:0;">
      <rect x="0" y="0" width="240" style="clip-path:url(#clipPath4); fill:none;" height="150" />
      <line x1="0" x2="240" y1="15" style="clip-path:url(#clipPath4); fill:none;" y2="15" />
    </g>
    <g transform="translate(472,477)" style="font-size:11; stroke-linecap:butt; text-rendering:geometricPrecision; font-family:sans-serif; stroke-linejoin:round; stroke-miterlimit:0;">
      <text x="2" y="14" style="clip-path:url(#clipPath10); stroke:none;" xml:space="preserve">-loader : ClassLoader</text>
      <text x="2" y="29" style="clip-path:url(#clipPath10); stroke:none;" xml:space="preserve">+errorLog : Logger</text>
      <text x="2" y="44" style="clip-path:url(#clipPath10); stroke:none;" xml:space="preserve">+infoLog : Logger</text>
      <text x="2" y="59" style="clip-path:url(#clipPath10); stroke:none;" xml:space="preserve">+modelWindow : Frame</text>
      <line x1="0" x2="240" y1="64" style="clip-path:url(#clipPath10); fill:none; stroke-linejoin:bevel;" y2="64" />
      <text x="2" y="78" style="clip-path:url(#clipPath10); stroke:none;" xml:space="preserve">+loadModel(xml : Document) : Model</text>
    </g>
    <g transform="translate(472,462)" style="font-size:11; stroke-linecap:butt; text-rendering:geometricPrecision; font-family:sans-serif; stroke-linejoin:round; font-weight:bold; stroke-miterlimit:0;">
      <text x="98" y="12" style="clip-path:url(#clipPath3); stroke:none;" xml:space="preserve">Runtime</text>
    </g>
    <g transform="translate(472,342)" style="font-size:11; fill:rgb(122,207,245); text-rendering:geometricPrecision; font-family:sans-serif; stroke:rgb(122,207,245); font-weight:bold;">
      <rect x="0" y="0" width="240" style="clip-path:url(#clipPath11); stroke:none;" height="80" />
    </g>
    <g transform="translate(472,342)" style="font-size:11; stroke-linecap:butt; text-rendering:geometricPrecision; font-family:sans-serif; stroke-linejoin:round; font-weight:bold; stroke-miterlimit:0;">
      <rect x="0" y="0" width="240" style="clip-path:url(#clipPath11); fill:none;" height="80" />
      <line x1="0" x2="240" y1="15" style="clip-path:url(#clipPath11); fill:none;" y2="15" />
    </g>
    <g transform="translate(472,357)" style="font-size:11; stroke-linecap:butt; text-rendering:geometricPrecision; font-family:sans-serif; stroke-linejoin:round; stroke-miterlimit:0;">
      <text x="2" y="14" style="clip-path:url(#clipPath12); stroke:none;" xml:space="preserve">-attributes : Map&lt;String, Object&gt;</text>
      <line x1="0" x2="240" y1="19" style="clip-path:url(#clipPath12); fill:none; stroke-linejoin:bevel;" y2="19" />
      <text x="2" y="33" style="clip-path:url(#clipPath12); stroke:none;" xml:space="preserve">+getAttribute(name : String) : Object</text>
      <text x="2" y="48" style="clip-path:url(#clipPath12); stroke:none;" xml:space="preserve">+setAttribute(name : String, value : Object)</text>
    </g>
    <g transform="translate(472,342)" style="font-size:11; stroke-linecap:butt; text-rendering:geometricPrecision; font-family:sans-serif; stroke-linejoin:round; font-weight:bold; stroke-miterlimit:0;">
      <text x="104" y="12" style="clip-path:url(#clipPath3); stroke:none;" xml:space="preserve">Entity</text>
    </g>
    <g transform="translate(2,2)" style="text-rendering:optimizeLegibility; font-size:20.7692; font-weight:bold; font-family:&apos;Verdana&apos;;">
      <text x="213" y="24" style="clip-path:url(#clipPath14); stroke:none;" xml:space="preserve">JAMS API core elements</text>
    </g>
    <g transform="translate(92,162)" style="font-size:11; stroke-linecap:butt; text-rendering:geometricPrecision; font-family:sans-serif; stroke-linejoin:round;">
      <line x1="50" x2="50" y1="50" style="clip-path:url(#clipPath19); fill:none;" y2="109" />
      <polygon style="fill:white; clip-path:url(#clipPath19); stroke:none;" points=" 50 50 44 62 56 62" />
      <polygon style="fill:none; clip-path:url(#clipPath19);" points=" 50 50 44 62 56 62" />
    </g>
    <g transform="translate(212,92)" style="font-size:11; stroke-linecap:butt; text-rendering:geometricPrecision; font-family:sans-serif; stroke-linejoin:round;">
      <line x1="50" x2="130" y1="50" style="clip-path:url(#clipPath20); fill:none;" y2="50" />
      <line x1="130" x2="130" y1="50" style="clip-path:url(#clipPath20); fill:none;" y2="230" />
      <line x1="130" x2="80" y1="230" style="clip-path:url(#clipPath20); fill:none;" y2="230" />
    </g>
    <g transform="translate(92,382)" style="font-size:11; stroke-linecap:butt; text-rendering:geometricPrecision; font-family:sans-serif; stroke-linejoin:round;">
      <line x1="50" x2="50" y1="50" style="clip-path:url(#clipPath19); fill:none;" y2="109" />
      <polygon style="fill:white; clip-path:url(#clipPath19); stroke:none;" points=" 50 50 44 62 56 62" />
      <polygon style="fill:none; clip-path:url(#clipPath19);" points=" 50 50 44 62 56 62" />
    </g>
    <g transform="translate(212,492)" style="font-size:11; stroke-linecap:butt; text-rendering:geometricPrecision; font-family:sans-serif; stroke-linejoin:round;">
      <line x1="50" x2="260" y1="50" style="clip-path:url(#clipPath21); fill:none;" y2="50" />
      <line x1="54" x2="63" y1="56" style="clip-path:url(#clipPath21); fill:none;" y2="44" />
      <line x1="54" x2="63" y1="44" style="clip-path:url(#clipPath21); fill:none;" y2="56" />
      <line x1="260" x2="248" y1="50" style="clip-path:url(#clipPath21); fill:none;" y2="44" />
      <line x1="260" x2="248" y1="50" style="clip-path:url(#clipPath21); fill:none;" y2="56" />
    </g>
    <g transform="translate(242,332)" style="font-size:11; stroke-linecap:butt; text-rendering:geometricPrecision; font-family:sans-serif; stroke-linejoin:round;">
      <line x1="50" x2="229" y1="50" style="clip-path:url(#clipPath22); fill:none;" y2="50" />
    </g>
    <g style="text-rendering:geometricPrecision; font-size:11; font-family:sans-serif;" transform="translate(272,542)">
      <text x="10" y="14" style="clip-path:url(#clipPath23); stroke:none;" xml:space="preserve">+runtime_user</text>
    </g>
    <g style="text-rendering:geometricPrecision; font-size:11; font-family:sans-serif;" transform="translate(432,382)">
      <text x="11" y="14" style="clip-path:url(#clipPath24); stroke:none;" xml:space="preserve">1..*</text>
    </g>
    <g style="text-rendering:geometricPrecision; font-size:11; font-family:sans-serif;" transform="translate(292,382)">
      <text x="17" y="14" style="clip-path:url(#clipPath24); stroke:none;" xml:space="preserve">1</text>
    </g>
    <g style="text-rendering:geometricPrecision; font-size:11; font-family:sans-serif;" transform="translate(432,362)">
      <text x="8" y="14" style="clip-path:url(#clipPath24); stroke:none;" xml:space="preserve">state</text>
    </g>
    <g style="text-rendering:geometricPrecision; font-size:11; font-family:sans-serif;" transform="translate(292,362)">
      <text x="6" y="14" style="clip-path:url(#clipPath25); stroke:none;" xml:space="preserve">context</text>
    </g>
    <g style="text-rendering:geometricPrecision; font-size:11; font-family:sans-serif;" transform="translate(292,302)">
      <text x="17" y="14" style="clip-path:url(#clipPath24); stroke:none;" xml:space="preserve">1</text>
    </g>
    <g style="text-rendering:geometricPrecision; font-size:11; font-family:sans-serif;" transform="translate(262,142)">
      <text x="11" y="14" style="clip-path:url(#clipPath24); stroke:none;" xml:space="preserve">1..*</text>
    </g>
    <g style="text-rendering:geometricPrecision; font-size:11; font-family:sans-serif;" transform="translate(342,302)">
      <text x="9" y="14" style="clip-path:url(#clipPath26); stroke:none;" xml:space="preserve">+container</text>
    </g>
    <g style="text-rendering:geometricPrecision; font-size:11; font-family:sans-serif;" transform="translate(342,142)">
      <text x="5" y="14" style="clip-path:url(#clipPath24); stroke:none;" xml:space="preserve">+child</text>
    </g>
    <g style="text-rendering:geometricPrecision; font-size:11; font-family:sans-serif;" transform="translate(340,382)">
      <text x="9" y="12" style="clip-path:url(#clipPath27); stroke:none;" xml:space="preserve">context_state</text>
    </g>
    <g style="text-rendering:geometricPrecision; font-size:11; font-family:sans-serif;" transform="translate(342,222)">
      <text x="11" y="12" style="clip-path:url(#clipPath28); stroke:none;" xml:space="preserve">component_nesting</text>
    </g>
    <g style="fill:rgb(120,120,120); text-rendering:geometricPrecision; font-size:10; stroke:rgb(120,120,120);">
      <text xml:space="preserve" x="0" y="10" style="stroke:none;">Visual Paradigm for UML Community Edition [not for commercial use] </text>
      <text xml:space="preserve" x="0" y="10" style="stroke:none;">Visual Paradigm for UML Community Edition [not for commercial use] </text>
    </g>
  </g>
</svg>
